<?xml version="1.0" standalone="no"?>
<!DOCTYPE svg PUBLIC "-//W3C//DTD SVG 20010904//EN"
 "http://www.w3.org/TR/2001/REC-SVG-20010904/DTD/svg10.dtd">
<svg version="1.0" xmlns="http://www.w3.org/2000/svg"
 width="512.000000pt" height="512.000000pt" viewBox="0 0 512.000000 512.000000"
 preserveAspectRatio="xMidYMid meet">
<metadata>
Created by potrace 1.11, written by Peter Selinger 2001-2013
</metadata>
<g transform="translate(0.000000,512.000000) scale(0.100000,-0.100000)"
fill="#000000" stroke="none">
<path d="M1490 4950 c-188 -32 -373 -168 -455 -332 -36 -75 -38 -76 -66 -68
-17 5 -62 8 -102 7 -108 -3 -186 -37 -262 -112 -73 -73 -105 -135 -118 -236
l-11 -76 -62 -32 c-53 -28 -125 -93 -180 -163 -32 -41 -67 -156 -70 -233 -4
-100 7 -151 51 -240 68 -141 212 -242 369 -260 l56 -7 0 41 0 41 130 0 131 0
-7 -37 c-9 -51 -9 -51 -56 -64 -86 -23 -189 -108 -230 -191 -37 -76 -42 -98
-42 -195 l0 -81 -36 -6 c-98 -16 -238 -116 -297 -214 -60 -98 -86 -243 -62
-352 26 -123 118 -249 229 -314 67 -39 153 -67 148 -48 -1 4 2 21 6 39 6 27
11 31 34 28 15 -2 51 -4 80 -4 l52 -1 0 -360 0 -360 -169 0 c-93 0 -177 -3
-186 -6 -42 -16 -45 -45 -45 -429 l0 -365 -80 0 -80 0 0 -80 0 -80 2400 0
2400 0 0 80 0 80 -80 0 -80 0 0 444 c0 245 -4 456 -9 469 -5 13 -23 30 -40 36
l-30 13 -3 219 c-3 194 -5 220 -21 236 -16 16 -42 18 -237 21 l-220 3 0 202
c0 111 -3 212 -6 225 -11 41 -52 52 -189 52 l-125 0 0 160 0 160 303 1 c371 1
375 1 489 61 155 82 250 251 243 436 -5 152 -68 273 -189 366 l-47 36 -3 73
c-6 167 -136 299 -301 306 -18 1 -20 8 -20 89 -1 97 -15 161 -56 242 -168 338
-626 413 -893 145 -77 -77 -156 -228 -156 -299 0 -20 -5 -21 -76 -19 -234 6
-414 -170 -411 -403 l1 -69 -122 -3 -122 -3 0 81 0 80 41 0 42 0 -5 128 c-4
119 -7 133 -38 201 -55 118 -183 213 -304 225 -26 3 -50 7 -53 9 -2 3 -5 45
-7 93 -4 112 -18 168 -68 272 -55 116 -163 224 -280 281 -46 22 -105 45 -133
52 -61 14 -203 19 -265 9z"/>
</g>
</svg>
